<svg width="105" height="27" viewBox="0 0 105 27" fill="none" xmlns="http://www.w3.org/2000/svg">
<path d="M0.108132 20V0.631538H2.04498V20H0.108132ZM11.9373 20.3953C10.5231 20.3953 9.31536 20.0747 8.31399 19.4334C7.31263 18.7922 6.54404 17.905 6.00822 16.7719C5.47241 15.6388 5.2045 14.3388 5.2045 12.8719C5.2045 11.3786 5.4768 10.0698 6.0214 8.94548C6.566 7.82115 7.33898 6.94715 8.34035 6.32349C9.35049 5.69105 10.5495 5.37483 11.9373 5.37483C13.3603 5.37483 14.5725 5.69545 15.5739 6.33667C16.584 6.96911 17.3526 7.85189 17.8796 8.98501C18.4155 10.1093 18.6834 11.405 18.6834 12.8719C18.6834 14.3651 18.4155 15.6783 17.8796 16.8115C17.3438 17.9358 16.5708 18.8142 15.5607 19.4466C14.5506 20.0791 13.3428 20.3953 11.9373 20.3953ZM11.9373 18.5375C13.5184 18.5375 14.6955 18.0148 15.4685 16.9696C16.2414 15.9155 16.6279 14.5496 16.6279 12.8719C16.6279 11.1502 16.2371 9.77995 15.4553 8.76102C14.6823 7.74209 13.5097 7.23263 11.9373 7.23263C10.8745 7.23263 9.99611 7.47418 9.30218 7.9573C8.61704 8.43163 8.10318 9.09481 7.76061 9.94685C7.42682 10.7901 7.25993 11.7651 7.25993 12.8719C7.25993 14.5847 7.6552 15.9594 8.44575 16.9959C9.2363 18.0236 10.4002 18.5375 11.9373 18.5375ZM27.2423 26.7197C26.5132 26.7197 25.793 26.6099 25.0815 26.3903C24.3788 26.1795 23.7287 25.8413 23.1314 25.3757C22.5341 24.919 22.0335 24.3217 21.6294 23.5838L23.3818 22.6088C23.7771 23.3994 24.3304 23.9659 25.0419 24.3085C25.7622 24.6599 26.4957 24.8355 27.2423 24.8355C28.27 24.8355 29.1001 24.6423 29.7325 24.2558C30.3738 23.8781 30.8393 23.3159 31.1292 22.5693C31.419 21.8227 31.5596 20.8916 31.5508 19.776V15.9814H31.7748V5.77011H33.5008V19.8024C33.5008 20.2064 33.4876 20.5929 33.4613 20.9618C33.4437 21.3395 33.4042 21.7085 33.3427 22.0686C33.1758 23.1315 32.8289 24.0055 32.3018 24.6906C31.7836 25.3757 31.0984 25.8852 30.2464 26.219C29.4031 26.5528 28.4018 26.7197 27.2423 26.7197ZM27.1105 20.3953C25.7842 20.3953 24.6511 20.0659 23.7112 19.4071C22.7713 18.7395 22.051 17.8392 21.5503 16.706C21.0497 15.5729 20.7993 14.2949 20.7993 12.8719C20.7993 11.4577 21.0453 10.184 21.5372 9.05089C22.0378 7.91777 22.7537 7.02181 23.6848 6.36302C24.6159 5.70423 25.7315 5.37483 27.0315 5.37483C28.3666 5.37483 29.491 5.69984 30.4045 6.34985C31.318 6.99985 32.0076 7.89142 32.4731 9.02454C32.9474 10.1489 33.1846 11.4313 33.1846 12.8719C33.1846 14.2861 32.9518 15.5641 32.4863 16.706C32.0207 17.8392 31.3356 18.7395 30.4309 19.4071C29.5261 20.0659 28.4193 20.3953 27.1105 20.3953ZM27.3082 18.5902C28.3183 18.5902 29.1528 18.3442 29.8116 17.8523C30.4704 17.3604 30.9623 16.6841 31.2873 15.8233C31.6123 14.9537 31.7748 13.9699 31.7748 12.8719C31.7748 11.7563 31.6123 10.7725 31.2873 9.92049C30.9623 9.05967 30.4704 8.38771 29.8116 7.90459C29.1616 7.42148 28.3403 7.17992 27.3477 7.17992C26.3288 7.17992 25.4855 7.43026 24.8179 7.93094C24.1504 8.43163 23.6541 9.11238 23.3291 9.9732C23.0129 10.834 22.8548 11.8002 22.8548 12.8719C22.8548 13.9523 23.0173 14.9273 23.3423 15.7969C23.676 16.6577 24.1723 17.3385 24.8311 17.8392C25.4899 18.3398 26.3156 18.5902 27.3082 18.5902ZM43.127 20.3953C41.7128 20.3953 40.505 20.0747 39.5036 19.4334C38.5023 18.7922 37.7337 17.905 37.1979 16.7719C36.6621 15.6388 36.3941 14.3388 36.3941 12.8719C36.3941 11.3786 36.6664 10.0698 37.211 8.94548C37.7556 7.82115 38.5286 6.94715 39.53 6.32349C40.5401 5.69105 41.7391 5.37483 43.127 5.37483C44.55 5.37483 45.7622 5.69545 46.7635 6.33667C47.7737 6.96911 48.5423 7.85189 49.0693 8.98501C49.6051 10.1093 49.873 11.405 49.873 12.8719C49.873 14.3651 49.6051 15.6783 49.0693 16.8115C48.5335 17.9358 47.7605 18.8142 46.7503 19.4466C45.7402 20.0791 44.5324 20.3953 43.127 20.3953ZM43.127 18.5375C44.7081 18.5375 45.8851 18.0148 46.6581 16.9696C47.4311 15.9155 47.8176 14.5496 47.8176 12.8719C47.8176 11.1502 47.4267 9.77995 46.6449 8.76102C45.872 7.74209 44.6993 7.23263 43.127 7.23263C42.0641 7.23263 41.1858 7.47418 40.4918 7.9573C39.8067 8.43163 39.2928 9.09481 38.9503 9.94685C38.6165 10.7901 38.4496 11.7651 38.4496 12.8719C38.4496 14.5847 38.8448 15.9594 39.6354 16.9959C40.4259 18.0236 41.5898 18.5375 43.127 18.5375ZM60.5269 20C59.7276 20.1669 58.937 20.2328 58.1553 20.1976C57.3823 20.1625 56.6883 19.9956 56.0735 19.697C55.4674 19.3983 55.0062 18.9328 54.69 18.3003C54.4353 17.7733 54.2947 17.2419 54.2684 16.706C54.2508 16.1614 54.242 15.5422 54.242 14.8483V1.81736H56.1657V14.7692C56.1657 15.3665 56.1701 15.8672 56.1789 16.2712C56.1964 16.6665 56.2887 17.0179 56.4556 17.3253C56.7718 17.9138 57.2725 18.2652 57.9576 18.3794C58.6515 18.4936 59.508 18.4672 60.5269 18.3003V20ZM51.1984 7.43026V5.77011H60.5269V7.43026H51.1984ZM64.9735 26.3244L67.7273 18.8537L67.7668 21.0672L61.5346 5.77011H63.5901L68.7023 18.5638H67.859L72.576 5.77011H74.5524L66.9104 26.3244H64.9735ZM83.2311 20.3953C81.9223 20.3953 80.8155 20.0659 79.9108 19.4071C79.0061 18.7395 78.3209 17.8392 77.8554 16.706C77.3898 15.5641 77.1571 14.2861 77.1571 12.8719C77.1571 11.4313 77.3898 10.1489 77.8554 9.02454C78.3297 7.89142 79.0236 6.99985 79.9372 6.34985C80.8507 5.69984 81.975 5.37483 83.3102 5.37483C84.6102 5.37483 85.7257 5.70423 86.6568 6.36302C87.5879 7.02181 88.2994 7.91777 88.7913 9.05089C89.292 10.184 89.5423 11.4577 89.5423 12.8719C89.5423 14.2949 89.292 15.5729 88.7913 16.706C88.2906 17.8392 87.5704 18.7395 86.6305 19.4071C85.6906 20.0659 84.5575 20.3953 83.2311 20.3953ZM76.8277 26.3244V5.77011H78.5669V16.4821H78.7777V26.3244H76.8277ZM83.0335 18.5902C84.0261 18.5902 84.8517 18.3398 85.5105 17.8392C86.1693 17.3385 86.6612 16.6577 86.9862 15.7969C87.32 14.9273 87.4869 13.9523 87.4869 12.8719C87.4869 11.8002 87.3244 10.834 86.9994 9.9732C86.6744 9.11238 86.1781 8.43163 85.5105 7.93094C84.8517 7.43026 84.0129 7.17992 82.9939 7.17992C82.0014 7.17992 81.1757 7.42148 80.5169 7.90459C79.8669 8.38771 79.3794 9.05967 79.0544 9.92049C78.7294 10.7725 78.5669 11.7563 78.5669 12.8719C78.5669 13.9699 78.7294 14.9537 79.0544 15.8233C79.3794 16.6841 79.8713 17.3604 80.5301 17.8523C81.1889 18.3442 82.0233 18.5902 83.0335 18.5902ZM98.457 20.3953C97.0692 20.3953 95.8658 20.0878 94.8468 19.473C93.8367 18.8581 93.0505 17.9929 92.4884 16.8773C91.9262 15.7618 91.6451 14.453 91.6451 12.9509C91.6451 11.3962 91.9218 10.0523 92.4752 8.91913C93.0286 7.78601 93.8059 6.91201 94.8073 6.29714C95.8175 5.68227 97.0077 5.37483 98.378 5.37483C99.7834 5.37483 100.982 5.69984 101.975 6.34985C102.968 6.99107 103.719 7.91338 104.228 9.11677C104.737 10.3202 104.97 11.7563 104.926 13.4253H102.95V12.7401C102.915 10.8955 102.515 9.50326 101.751 8.56338C100.996 7.62351 99.8888 7.15357 98.4307 7.15357C96.9023 7.15357 95.7296 7.64986 94.9127 8.64244C94.1046 9.63502 93.7005 11.0492 93.7005 12.8851C93.7005 14.677 94.1046 16.0692 94.9127 17.0618C95.7296 18.0456 96.8847 18.5375 98.378 18.5375C99.3969 18.5375 100.284 18.3047 101.039 17.8392C101.804 17.3648 102.405 16.6841 102.845 15.7969L104.65 16.4952C104.087 17.7338 103.257 18.6956 102.159 19.3807C101.07 20.0571 99.8361 20.3953 98.457 20.3953ZM93.0154 13.4253V11.8046H103.885V13.4253H93.0154Z" fill="black"/>
</svg>
