<svg width="40" height="40" viewBox="0 0 18 18" fill="none" xmlns="http://www.w3.org/2000/svg">
<path fill-rule="evenodd" clip-rule="evenodd" d="M14.5 6.16667C14.5 9.29628 12.0376 11.8333 8.99999 11.8333C5.96242 11.8333 3.49999 9.29628 3.49999 6.16667C3.49999 3.03705 5.96242 0.5 8.99999 0.5C12.0376 0.5 14.5 3.03705 14.5 6.16667ZM13.5 6.16667C13.5 8.77235 11.4573 10.8333 8.99999 10.8333C6.54263 10.8333 4.49999 8.77235 4.49999 6.16667C4.49999 3.56099 6.54263 1.5 8.99999 1.5C11.4573 1.5 13.5 3.56099 13.5 6.16667Z" fill="#0d3b76"/>
<path d="M1.04774 16.3655C1.0905 16.1995 1.25372 15.962 1.65309 15.6922C2.04242 15.4293 2.59994 15.1746 3.31331 14.9529C4.73738 14.5103 6.70751 14.2222 8.99999 14.2222C11.2925 14.2222 13.2626 14.5103 14.6867 14.9529C15.4 15.1746 15.9576 15.4293 16.3469 15.6922C16.7463 15.962 16.9095 16.1995 16.9522 16.3654C17.0417 16.7127 17.0013 17.0069 16.8657 17.2725C16.74 17.5184 16.8375 17.8196 17.0834 17.9452C17.3293 18.0708 17.6305 17.9733 17.7562 17.7274C18.0061 17.2383 18.0693 16.6929 17.9206 16.1159C17.7895 15.6072 17.3937 15.1925 16.9066 14.8635C16.4095 14.5278 15.7533 14.2372 14.9834 13.9979C13.4411 13.5186 11.3668 13.2222 8.99999 13.2222C6.63315 13.2222 4.55893 13.5186 3.01654 13.9979C2.24668 14.2372 1.59045 14.5278 1.09336 14.8636C0.606329 15.1925 0.210476 15.6072 0.0793733 16.1159C-0.0693156 16.6929 -0.0060975 17.2383 0.243793 17.7274C0.369424 17.9733 0.670618 18.0708 0.916527 17.9452C1.16244 17.8196 1.25994 17.5184 1.13431 17.2725C0.998636 17.0069 0.958245 16.7128 1.04774 16.3655Z" fill="#0d3b76"/>
</svg>